# AST/ASF file generated using VICON BodyLanguage
# -----------------------------------------------
:version 1.10
:name VICON
:units
  mass 1.0
  length 0.45
  angle deg
:documentation
   .ast/.asf automatically generated from VICON data using
   VICON BodyBuilder and BodyLanguage model FoxedUp or BRILLIANT.MOD
:root
   order TX TY TZ RX RY RZ
   axis XYZ
   position 0 0 0  
   orientation 0 0 0 
:bonedata
  begin
     id 1 
     name lhipjoint
     direction 0.576517 -0.752066 0.319413 
     length 2.45433 
     axis 0 0 0  XYZ
  end
  begin
     id 2 
     name lfemur
     direction 0.34202 -0.939693 0  
     length 7.54459  
     axis 0 0 20  XYZ
    dof rx ry rz
    limits (-160.0 20.0)
           (-70.0 70.0)
           (-60.0 70.0)
  end
  begin
     id 3 
     name ltibia
     direction 0.34202 -0.939693 0   
     length 7.73986   
     axis 0 0 20   XYZ
    dof rx
    limits (-10.0 170.0)
  end
  begin
     id 4 
     name lfoot
     direction 0.090693 -0.249177 0.964202   
     length 2.28437   
     axis -90 7.62852e-016 20   XYZ
    dof rx rz
    limits (-45.0 90.0)
           (-70.0 20.0)
  end
  begin
     id 5 
     name ltoes
     direction 1.5356e-011 -4.21928e-011 1   
     length 1.14243   
     axis -90 7.62852e-016 20   XYZ
    dof rx
    limits (-90.0 20.0)
  end
  begin
     id 6 
     name rhipjoint
     direction -0.573937 -0.753736 0.320122   
     length 2.44889  
     axis 0 0 0  XYZ 
  end
  begin
     id 7 
     name rfemur
     direction -0.34202 -0.939693 0   
     length 7.50166   
     axis 0 0 -20   XYZ
    dof rx ry rz
    limits (-160.0 20.0)
           (-70.0 70.0)
           (-70.0 60.0)
  end
  begin
     id 8 
     name rtibia
     direction -0.34202 -0.939693 0   
     length 7.54266   
     axis 0 0 -20   XYZ
    dof rx
    limits (-10.0 170.0)
 end
 begin
     id 9 
     name rfoot
     direction -0.114017 -0.31326 0.942798   
     length 2.34212  
     axis -90 -7.62852e-016 -20   XYZ
    dof rx rz
    limits (-45.0 90.0)
           (-20.0 70.0)
  end
  begin
     id 10 
     name rtoes
     direction -1.53557e-011 -4.21867e-011 1   
     length 1.16246   
     axis -90 -7.62852e-016 -20   XYZ
    dof rx
    limits (-90.0 20.0)
  end
  begin
     id 11 
     name lowerback
     direction -0.0228371 0.999155 -0.034167   
     length 2.0537   
     axis 0 0 0   XYZ
    dof rx ry rz
    limits (-20.0 45.0)
           (-30.0 30.0)
           (-30.0 30.0)
  end
  begin
     id 12 
     name upperback
     direction 0.0198981 0.999794 0.00389455   
     length 2.05302   
     axis 0 0 0   XYZ
    dof rx ry rz
    limits (-20.0 45.0)
           (-30.0 30.0)
           (-30.0 30.0)
  end
  begin
     id 13 
     name thorax
     direction 0.0304566 0.99935 0.0192987   
     length 2.05315   
     axis 0 0 0   XYZ
    dof rx ry rz
    limits (-20.0 45.0)
           (-30.0 30.0)
           (-30.0 30.0)
  end
  begin
     id 14 
     name lowerneck
     direction -0.0196762 0.99417 0.106017   
     length 1.82056   
     axis 0 0 0   XYZ
    dof rx ry rz
    limits (-20.0 45.0)
           (-30.0 30.0)
           (-30.0 30.0)
  end
  begin
     id 15 
     name upperneck
     direction 0.00517787 0.9802 -0.197944   
     length 1.83835   
     axis 0 0 0   XYZ
    dof rx ry rz
    limits (-20.0 45.0)
           (-30.0 30.0)
           (-30.0 30.0)
  end
  begin
     id 16
     name head
     direction 0.00211419 0.996945 -0.078081  
     length 1.85629  
     axis 0 0 0   XYZ
    dof rx ry rz
    limits (-20.0 45.0)
           (-30.0 30.0)
           (-30.0 30.0)
  end
  begin
     id 17 
     name lclavicle
     direction 0.930001 0.365811 -0.0357824  
     length 3.81961  
     axis 0 0 0   XYZ
    dof ry rz
    limits (-20.0 10.0)
           (0.0 20.0)
  end
  begin
     id 18 
     name lhumerus
     direction 1 -4.48968e-011 -3.06644e-027   
     length 5.14507   
     axis 180 -30 -90   XYZ
    dof rx ry rz
    limits (-60.0 90.0)
           (-90.0 90.0)
           (-90.0 90.0)
  end
  begin
     id 19
     name lradius
     direction 1 -4.48965e-011 9.06925e-028   
     length 3.50646   
     axis 180 -30 -90   XYZ
    dof rx
    limits (-10.0 170.0)
  end
  begin
     id 20
     name lwrist
     direction 1 -4.48957e-011 1.03922e-027   
     length 1.75323   
     axis -2.56395e-016 90 90   XYZ
    dof ry
    limits (-180.0 0.0)
 end
  begin
     id 21 
     name lhand
     direction 1 -4.48967e-011 2.08017e-027   
     length 0.629969   
     axis -1.32723e-015 90 90   XYZ
    dof rx rz
    limits (-90.0 90.0)
           (-45.0 45.0)
  end
  begin
     id 22 
     name lfingers
     direction 1 -4.49089e-011 4.20095e-027   
     length 0.507897   
     axis -2.6545e-015 90 90   XYZ
    dof rx
    limits (0.0 90.0)
  end
  begin
     id 23
     name lthumb
     direction 0.707107 -6.35001e-011 0.707107   
     length 0.729241   
     axis -90 45 5.05613e-014   XYZ
    dof rx rz
    limits (-45.0 45.0)
           (-45.0 45.0)
  end
  begin
     id 24 
     name rclavicle
     direction -0.881882 0.464123 -0.0829113   
     length 3.47515  
     axis 0 0 0   XYZ 
    dof ry rz
    limits (-10.0 20.0)
           (-20.0 0.0)
  end
  begin
     id 25 
     name rhumerus
     direction -1 -4.48961e-011 -1.55672e-027  
     length 5.232   
     axis 180 30 90   XYZ
    dof rx ry rz
    limits (-90.0 60.0)
           (-90.0 90.0)
           (-90.0 90.0)
  end
  begin
     id 26 
     name rradius
     direction -1 -4.48963e-011 6.18178e-029   
     length 3.65641   
     axis 180 30 90   XYZ
    dof rx
    limits (-10.0 170.0)
  end
  begin
     id 27 
     name rwrist
     direction -1 -4.48982e-011 1.04136e-027   
     length 1.8282   
     axis -2.56395e-016 -90 -90   XYZ
    dof ry
    limits (-180.0 0.0)
  end
  begin
     id 28
     name rhand
     direction -1 -4.48929e-011 2.07378e-027   
     length 0.656807   
     axis -1.32723e-015 -90 -90   XYZ
    dof rx rz
    limits (-90.0 90.0)
           (-45.0 45.0)
  end
  begin
     id 29
     name rfingers
     direction -1 -4.489e-011 4.13816e-027   
     length 0.529535   
     axis -2.6545e-015 -90 -90   XYZ
    dof rx
    limits (0.0 90.0)
  end
  begin
     id 30
     name rthumb
     direction -0.707107 -6.34843e-011 0.707107   
     length 0.760309   
     axis -90 -45 -5.05613e-014   XYZ
    dof rx rz
    limits (-45.0 45.0)
           (-45.0 45.0)
  end
:hierarchy
  begin
    root lhipjoint rhipjoint lowerback
    lhipjoint lfemur
    lfemur ltibia
    ltibia lfoot
    lfoot ltoes
    rhipjoint rfemur
    rfemur rtibia
    rtibia rfoot
    rfoot rtoes
    lowerback upperback
    upperback thorax
    thorax lowerneck lclavicle rclavicle
    lowerneck upperneck
    upperneck head
    lclavicle lhumerus
    lhumerus lradius
    lradius lwrist
    lwrist lhand lthumb
    lhand lfingers
    rclavicle rhumerus
    rhumerus rradius
    rradius rwrist
    rwrist rhand rthumb
    rhand rfingers
  end

#!OML:ASF H:\ManfredETheater\Project 1\Capture day 1\Session 1\subject.ASF
:FULLY-SPECIFIED
:DEGREES
1
root 1.89464 17.9104 -4.33049 6.19966 2.60583 1.09336
lowerback -2.63685 -0.71826 -3.36133
upperback -2.51991 -0.89854 0.60087
thorax -1.04855 -0.395444 2.48587
lowerneck -21.8971 -3.72526 -4.9055
upperneck 16.1136 -4.57205 4.83221
head 8.8643 -1.92031 1.81743
rclavicle 7.80113e-015 1.19271e-015
rhumerus -17.3034 -24.8124 -1.79654
rradius 23.8138
rwrist 7.91474
rhand -20.9581 -17.9471
rfingers 7.12502
rthumb 5.41478 -47.8579
lclavicle 7.80113e-015 1.19271e-015
lhumerus -11.4517 26.9716 7.79308
lradius 24.0037
lwrist -20.5442
lhand -14.7384 12.3847
lfingers 7.12502
lthumb 11.417 42.0539
rfemur -9.27479 -0.713293 9.15255
rtibia 26.9783
rfoot -17.5111 -17.8145
rtoes 1.72968
lfemur -12.7549 -3.48867 -13.3696
ltibia 30.9565
lfoot -17.4662 10.8945
ltoes -9.75387
2
root 1.89747 17.9103 -4.32928 6.19291 2.6146 1.09589
lowerback -2.62698 -0.712575 -3.35626
upperback -2.52138 -0.891456 0.594028
thorax -1.05623 -0.391868 2.47626
lowerneck -21.8767 -3.73085 -4.9366
upperneck 16.1357 -4.57559 4.8498
head 8.8698 -1.92219 1.82826
rclavicle 2.333e-015 -3.8763e-015
rhumerus -17.3571 -24.5677 -1.77595
rradius 23.8813
rwrist 7.62316
rhand -20.9152 -18.1386
rfingers 7.12502
rthumb 5.45622 -48.0483
lclavicle 2.333e-015 -3.8763e-015
lhumerus -11.4193 27.0816 7.79772
lradius 23.9724
lwrist -20.7023
lhand -14.7548 12.3951
lfingers 7.12502
lthumb 11.4013 42.0652
rfemur -9.25277 -0.728779 9.13945
rtibia 26.9634
rfoot -17.491 -17.812
rtoes 1.66059
lfemur -12.7457 -3.47688 -13.3822
ltibia 30.9684
lfoot -17.4709 10.8693
ltoes -9.73469
3
root 1.89938 17.9104 -4.32734 6.18944 2.6052 1.11018
lowerback -2.63728 -0.706816 -3.38666
upperback -2.50869 -0.882735 0.592999
thorax -1.03765 -0.387582 2.49221
lowerneck -21.8651 -3.71889 -4.95441
upperneck 16.1246 -4.55706 4.86584
head 8.86386 -1.9131 1.83941
rclavicle -1.19356e-014 1.78906e-014
rhumerus -17.3891 -24.5272 -1.72606
rradius 23.8966
rwrist 7.5591
rhand -20.8671 -18.1868
rfingers 7.12502
rthumb 5.50267 -48.0953
lclavicle -1.19356e-014 1.78906e-014
lhumerus -11.424 27.1614 7.78613
lradius 23.9576
lwrist -20.8003
lhand -14.7831 12.4349
lfingers 7.12502
lthumb 11.3739 42.1064
rfemur -9.23698 -0.723733 9.11768
rtibia 26.9503
rfoot -17.4908 -17.8189
rtoes 1.70779
lfemur -12.737 -3.45064 -13.4062
ltibia 30.9765
lfoot -17.4799 10.8599
ltoes -9.74817
4
root 1.90158 17.9103 -4.3258 6.19345 2.59412 1.11003
lowerback -2.63668 -0.699378 -3.38631
upperback -2.51958 -0.873023 0.589126
thorax -1.04992 -0.382384 2.4883
lowerneck -21.8291 -3.72016 -4.9414
upperneck 16.1332 -4.56041 4.84429
head 8.85992 -1.91676 1.82976
rclavicle -2.66437e-015 9.93923e-015
rhumerus -17.4011 -24.6495 -1.66922
rradius 23.8448
rwrist 7.73716
rhand -20.8604 -18.1291
rfingers 7.12502
rthumb 5.50913 -48.0375
lclavicle -2.66437e-015 9.93923e-015
lhumerus -11.4407 27.133 7.75613
lradius 23.9653
lwrist -20.7793
lhand -14.7591 12.4237
lfingers 7.12502
lthumb 11.3971 42.0939
rfemur -9.23058 -0.716129 9.10872
rtibia 26.9362
rfoot -17.4879 -17.8103
rtoes 1.7048
lfemur -12.7356 -3.45548 -13.4183
ltibia 30.9854
lfoot -17.4857 10.8847
ltoes -9.7602
5
root 1.90364 17.9104 -4.32418 6.19375 2.58399 1.11103
lowerback -2.63777 -0.692241 -3.3915
upperback -2.52279 -0.86344 0.586841
thorax -1.05324 -0.377425 2.48906
lowerneck -21.8095 -3.71615 -4.94265
upperneck 16.1474 -4.55512 4.83983
head 8.86104 -1.91509 1.8294
rclavicle 4.27717e-015 9.64106e-015
rhumerus -17.426 -24.6377 -1.62533
rradius 23.8381
rwrist 7.75709
rhand -20.8453 -18.1516
rfingers 7.12502
rthumb 5.52367 -48.0596
lclavicle 4.27717e-015 9.64106e-015
lhumerus -11.4485 27.1508 7.73582
lradius 23.9628
lwrist -20.8009
lhand -14.7542 12.4343
lfingers 7.12502
lthumb 11.4018 42.1044
rfemur -9.22027 -0.706642 9.09986
rtibia 26.9224
rfoot -17.4839 -17.8102
rtoes 1.70927
lfemur -12.7308 -3.45158 -13.4296
ltibia 30.993
lfoot -17.4907 10.8955
ltoes -9.75786
6
root 1.90555 17.9105 -4.32253 6.19447 2.57121 1.10977
lowerback -2.63853 -0.684819 -3.39497
upperback -2.52727 -0.853533 0.585395
thorax -1.05808 -0.372278 2.48973
lowerneck -21.7932 -3.71072 -4.93983
upperneck 16.1669 -4.54859 4.83242
head 8.86434 -1.91284 1.82753
rclavicle -1.06882e-014 4.96962e-015
rhumerus -17.4485 -24.6236 -1.58424
rradius 23.8303
rwrist 7.79073
rhand -20.8364 -18.1678
rfingers 7.12502
rthumb 5.53231 -48.0756
lclavicle -1.06882e-014 4.96962e-015
lhumerus -11.4608 27.153 7.71284
lradius 23.9654
lwrist -20.7962
lhand -14.7445 12.4512
lfingers 7.12502
lthumb 11.4112 42.1206
rfemur -9.21045 -0.692101 9.09394
rtibia 26.907
rfoot -17.4803 -17.8116
rtoes 1.71743
lfemur -12.7266 -3.45058 -13.4381
ltibia 31.0012
lfoot -17.4963 10.9111
ltoes -9.75229
7
root 1.90737 17.9105 -4.32091 6.19468 2.55716 1.10656
lowerback -2.63757 -0.67727 -3.39589
upperback -2.53293 -0.843575 0.584363
thorax -1.06512 -0.367082 2.48943
lowerneck -21.7804 -3.70478 -4.93489
upperneck 16.1924 -4.54178 4.82345
head 8.87019 -1.9104 1.8248
rclavicle 7.23254e-015 1.39149e-015
rhumerus -17.4703 -24.5871 -1.5489
rradius 23.8278
rwrist 7.81184
rhand -20.8297 -18.1903
rfingers 7.12502
rthumb 5.53878 -48.098
lclavicle 7.23254e-015 1.39149e-015
lhumerus -11.4755 27.1422 7.68896
lradius 23.972
lwrist -20.7713
lhand -14.7302 12.4785
lfingers 7.12502
lthumb 11.4249 42.1472
rfemur -9.20042 -0.674527 9.09045
rtibia 26.8912
rfoot -17.4768 -17.814
rtoes 1.72214
lfemur -12.7217 -3.45184 -13.4443
ltibia 31.0093
lfoot -17.502 10.9283
ltoes -9.7429
8
root 1.90905 17.9106 -4.31928 6.19387 2.54167 1.10229
lowerback -2.63577 -0.669652 -3.39624
upperback -2.53818 -0.833557 0.58393
thorax -1.07222 -0.361865 2.48943
lowerneck -21.7726 -3.69767 -4.92928
upperneck 16.2226 -4.53365 4.81497
head 8.87846 -1.90714 1.82228
rclavicle 5.77699e-015 -1.65985e-014
rhumerus -17.4921 -24.5222 -1.51995
rradius 23.834
rwrist 7.80815
rhand -20.8215 -18.2232
rfingers 7.12502
rthumb 5.54669 -48.1306
lclavicle 5.77699e-015 -1.65985e-014
lhumerus -11.4926 27.1211 7.66485
lradius 23.9826
lwrist -20.7303
lhand -14.7143 12.5212
lfingers 7.12502
lthumb 11.4403 42.1891
rfemur -9.18969 -0.654089 9.0886
rtibia 26.8752
rfoot -17.4735 -17.8179
rtoes 1.72622
lfemur -12.7154 -3.45313 -13.4487
ltibia 31.0172
lfoot -17.5078 10.9451
ltoes -9.73079
